<svg width="71" height="76" viewBox="0 0 71 76" fill="none" xmlns="http://www.w3.org/2000/svg">
<path d="M0.5 10C0.5 4.47715 4.97715 0 10.5 0H60.5C66.0228 0 70.5 4.47715 70.5 10V66C70.5 71.5228 66.0228 76 60.5 76H10.5C4.97715 76 0.5 71.5228 0.5 66V10Z" fill="#EFF8ED"/>
<g clip-path="url(#clip0_2638_5214)">
<g clip-path="url(#clip1_2638_5214)">
<path d="M21.2148 41.9994C21.2148 42.315 21.4707 42.5709 21.7863 42.5709H49.2148C49.5304 42.5709 49.7863 42.315 49.7863 41.9994V24.2852H21.2148V41.9994Z" fill="#E74040"/>
<path d="M50.9286 22H20.0714C19.7559 22 19.5 22.2559 19.5 22.5714C19.5 22.887 19.7559 23.1429 20.0714 23.1429H50.9286C51.2441 23.1429 51.5 22.887 51.5 22.5714C51.5 22.2559 51.2441 22 50.9286 22Z" fill="#E74040"/>
<path d="M40.072 51.7148H36.072V44.8577H36.6434C36.959 44.8577 37.2148 44.6018 37.2148 44.2863V43.7148H33.7863V44.2863C33.7863 44.6018 34.0421 44.8577 34.3577 44.8577H34.9291V51.7148H30.9291C29.9824 51.7148 29.2148 52.4824 29.2148 53.4291V54.0006H41.7863V53.4291C41.7863 52.4824 41.0187 51.7148 40.072 51.7148Z" fill="#E74040"/>
</g>
</g>
<defs>
<clipPath id="clip0_2638_5214">
<rect width="32" height="32" fill="white" transform="translate(19.5 22)"/>
</clipPath>
<clipPath id="clip1_2638_5214">
<rect width="32" height="32" fill="white" transform="translate(19.5 22)"/>
</clipPath>
</defs>
</svg>
