<svg width="71" height="76" viewBox="0 0 71 76" fill="none" xmlns="http://www.w3.org/2000/svg">
<path d="M0.5 10C0.5 4.47715 4.97715 0 10.5 0H60.5C66.0228 0 70.5 4.47715 70.5 10V66C70.5 71.5228 66.0228 76 60.5 76H10.5C4.97715 76 0.5 71.5228 0.5 66V10Z" fill="#FFF2F3"/>
<g clip-path="url(#clip0_2638_5246)">
<g clip-path="url(#clip1_2638_5246)">
<g clip-path="url(#clip2_2638_5246)">
<path d="M30.7754 43.6055H40.2247V48.3301H30.7754V43.6055Z" fill="#E74040"/>
<path d="M35.4997 25.6523C29.7683 25.6523 25.1055 30.3153 25.1055 36.0466V50.2206C25.1055 52.3047 26.8011 54.0003 28.8852 54.0003H42.1142C44.1984 54.0003 45.894 52.3047 45.894 50.2206V36.0466C45.894 30.3152 41.2312 25.6523 35.4997 25.6523V25.6523ZM29.8301 34.1567H41.1693V36.0466H39.2795V37.9365H37.3896V36.0466H29.8301V34.1567ZM42.1142 50.2206H28.8852V41.7162H42.1142V50.2206Z" fill="#E74040"/>
<path d="M45.2042 23.8388L39.8411 22L39.0566 24.288C40.9519 24.8625 42.6545 25.8834 44.0422 27.228L45.2042 23.8388Z" fill="#E74040"/>
<path d="M31.9425 24.288L31.158 22L25.7949 23.8388L26.9569 27.228C28.3446 25.8834 30.0473 24.8625 31.9425 24.288V24.288Z" fill="#E74040"/>
</g>
</g>
</g>
<defs>
<clipPath id="clip0_2638_5246">
<rect width="32" height="32" fill="white" transform="translate(19.5 22)"/>
</clipPath>
<clipPath id="clip1_2638_5246">
<rect width="32" height="32" fill="white" transform="translate(19.5 22)"/>
</clipPath>
<clipPath id="clip2_2638_5246">
<rect width="20.7885" height="32" fill="white" transform="translate(25.1055 22)"/>
</clipPath>
</defs>
</svg>
